<svg width="126" height="126" viewBox="0 0 126 126" fill="none" xmlns="http://www.w3.org/2000/svg">
<rect width="126" height="126" fill="black"/>
<path d="M9.956 104.168C8.74267 104.168 7.76267 103.678 7.016 102.698C6.27867 101.709 5.91 100.509 5.91 99.1C5.91 98.1947 6.07333 97.3593 6.4 96.594C6.72667 95.8287 7.20267 95.2127 7.828 94.746C8.46267 94.27 9.18133 94.032 9.984 94.032C11.1973 94.032 12.1727 94.5267 12.91 95.516C13.6567 96.496 14.03 97.6907 14.03 99.1C14.03 100.005 13.8667 100.841 13.54 101.606C13.2133 102.371 12.7327 102.992 12.098 103.468C11.4727 103.935 10.7587 104.168 9.956 104.168ZM7.59 102.194C8.206 103.071 9.004 103.51 9.984 103.51C10.964 103.51 11.7573 103.076 12.364 102.208C12.9707 101.331 13.274 100.295 13.274 99.1C13.274 97.9053 12.966 96.874 12.35 96.006C11.734 95.1287 10.936 94.69 9.956 94.69C8.976 94.69 8.18267 95.124 7.576 95.992C6.96933 96.86 6.666 97.896 6.666 99.1C6.666 100.285 6.974 101.317 7.59 102.194ZM17.4455 104V94.886L15.5555 95.53L15.3595 94.956L17.5995 94.13H18.1595V104H17.4455Z" fill="white"/>
<path d="M11.012 119V115.676C10.1 116.156 9.308 116.384 8.624 116.384C7.772 116.384 7.1 116.168 6.596 115.712C6.092 115.256 5.852 114.596 5.852 113.708V110.6H7.328V113.336C7.328 113.876 7.46 114.296 7.724 114.584C7.988 114.872 8.372 115.016 8.888 115.016C9.644 115.016 10.352 114.8 11.012 114.356V110.6H12.488V119H11.012ZM14.6464 119V110.6H20.8744V111.92H16.1224V114.104H20.3344V115.424H16.1224V117.68H20.9344V119H14.6464ZM22.6855 119V110.6H25.9975C26.9695 110.6 27.7495 110.864 28.3255 111.368C28.9015 111.884 29.1895 112.568 29.1895 113.432C29.1895 114.344 28.8655 115.04 28.2295 115.544C27.5935 116.048 26.7895 116.3 25.8295 116.3H24.1615V119H22.6855ZM24.1615 114.968H25.8775C26.4295 114.968 26.8615 114.836 27.1975 114.548C27.5215 114.272 27.6895 113.9 27.6895 113.444C27.6895 112.964 27.5215 112.604 27.1975 112.34C26.8735 112.076 26.4295 111.944 25.8775 111.944H24.1615V114.968ZM30.7011 119V110.6H32.1771V114.092H36.1851V110.6H37.6611V119H36.1851V115.46H32.1771V119H30.7011ZM39.8183 119V110.6H41.2823V113.624H43.2143C44.1743 113.624 44.9303 113.864 45.5063 114.32C46.0823 114.776 46.3703 115.424 46.3703 116.252C46.3703 117.104 46.0823 117.776 45.5183 118.268C44.9423 118.76 44.1743 119 43.2023 119H39.8183ZM41.2823 117.68H43.1783C43.7303 117.68 44.1503 117.56 44.4503 117.32C44.7503 117.08 44.9063 116.72 44.9063 116.24C44.9063 115.808 44.7503 115.484 44.4503 115.256C44.1383 115.028 43.7063 114.908 43.1543 114.908H41.2823V117.68ZM47.3663 119V110.6H48.8303V119H47.3663ZM54.5743 109.94C54.0703 109.94 53.6503 109.796 53.3143 109.496C52.9783 109.196 52.7623 108.788 52.6783 108.26L53.5783 108.092C53.7223 108.644 54.0583 108.908 54.5743 108.908C55.0663 108.908 55.4023 108.644 55.5703 108.092L56.4583 108.26C56.3743 108.788 56.1703 109.196 55.8343 109.496C55.4983 109.796 55.0783 109.94 54.5743 109.94ZM50.9863 119V110.6H52.4383V116.732L56.6862 110.6H58.0663V119H56.6143V112.88L52.3783 119H50.9863Z" fill="white"/>
</svg>
