<svg width="126" height="126" viewBox="0 0 126 126" fill="none" xmlns="http://www.w3.org/2000/svg">
<rect width="126" height="126" fill="white"/>
<path d="M9.956 104.168C8.74267 104.168 7.76267 103.678 7.016 102.698C6.27867 101.709 5.91 100.509 5.91 99.1C5.91 98.1947 6.07333 97.3593 6.4 96.594C6.72667 95.8287 7.20267 95.2127 7.828 94.746C8.46267 94.27 9.18133 94.032 9.984 94.032C11.1973 94.032 12.1727 94.5267 12.91 95.516C13.6567 96.496 14.03 97.6907 14.03 99.1C14.03 100.005 13.8667 100.841 13.54 101.606C13.2133 102.371 12.7327 102.992 12.098 103.468C11.4727 103.935 10.7587 104.168 9.956 104.168ZM7.59 102.194C8.206 103.071 9.004 103.51 9.984 103.51C10.964 103.51 11.7573 103.076 12.364 102.208C12.9707 101.331 13.274 100.295 13.274 99.1C13.274 97.9053 12.966 96.874 12.35 96.006C11.734 95.1287 10.936 94.69 9.956 94.69C8.976 94.69 8.18267 95.124 7.576 95.992C6.96933 96.86 6.666 97.896 6.666 99.1C6.666 100.285 6.974 101.317 7.59 102.194ZM15.4747 104V103.454L19.1287 100.15C19.9407 99.4127 20.5054 98.8013 20.8227 98.316C21.1401 97.8213 21.2987 97.3173 21.2987 96.804C21.2987 96.188 21.0794 95.684 20.6407 95.292C20.2114 94.9 19.6934 94.704 19.0867 94.704C18.4894 94.704 17.9667 94.8533 17.5187 95.152C17.0801 95.4507 16.6461 95.908 16.2167 96.524L15.6707 96.16C16.1374 95.4507 16.6321 94.9233 17.1547 94.578C17.6774 94.2327 18.3447 94.06 19.1567 94.06C19.9874 94.06 20.6781 94.3213 21.2287 94.844C21.7887 95.3573 22.0687 96.0013 22.0687 96.776C22.0687 97.42 21.8867 98.008 21.5227 98.54C21.1681 99.072 20.5334 99.7533 19.6187 100.584L16.6227 103.3H22.1667V104H15.4747Z" fill="black"/>
<path d="M6.08 119V110.6H12.344V111.932H7.544V113.864H9.884C10.82 113.864 11.552 114.092 12.104 114.536C12.656 114.992 12.932 115.616 12.932 116.408C12.932 117.248 12.656 117.884 12.104 118.328C11.552 118.784 10.784 119 9.812 119H6.08ZM7.544 117.68H9.488C10.16 117.68 10.652 117.584 10.976 117.392C11.288 117.2 11.456 116.852 11.456 116.348C11.456 115.532 10.88 115.112 9.752 115.112H7.544V117.68ZM14.5995 119V110.6H20.8275V111.92H16.0755V114.104H20.2875V115.424H16.0755V117.68H20.8875V119H14.5995ZM22.6386 119.096C22.2906 119.096 21.9546 119.06 21.6186 118.964L21.7626 117.752C21.9066 117.8 22.0626 117.824 22.2426 117.824C22.4346 117.824 22.5906 117.8 22.7346 117.74C22.8786 117.68 23.0226 117.536 23.1786 117.308C23.3346 117.092 23.4546 116.78 23.5506 116.396C23.6466 116.012 23.7186 115.46 23.7906 114.764C23.8506 114.068 23.8866 113.24 23.8866 112.256V110.6H29.6466V119H28.1706V111.932H25.2666V112.688C25.2666 113.996 25.2066 115.076 25.0986 115.94C24.9786 116.804 24.8106 117.452 24.5706 117.908C24.3306 118.364 24.0546 118.676 23.7546 118.844C23.4546 119.012 23.0826 119.096 22.6386 119.096ZM31.8144 119V110.6H33.2784V113.624H35.2104C36.1704 113.624 36.9264 113.864 37.5024 114.32C38.0784 114.776 38.3664 115.424 38.3664 116.252C38.3664 117.104 38.0784 117.776 37.5144 118.268C36.9384 118.76 36.1704 119 35.1984 119H31.8144ZM33.2784 117.68H35.1744C35.7264 117.68 36.1464 117.56 36.4464 117.32C36.7464 117.08 36.9024 116.72 36.9024 116.24C36.9024 115.808 36.7464 115.484 36.4464 115.256C36.1344 115.028 35.7024 114.908 35.1504 114.908H33.2784V117.68ZM39.3624 119V110.6H40.8264V119H39.3624ZM46.5703 109.94C46.0663 109.94 45.6463 109.796 45.3103 109.496C44.9743 109.196 44.7583 108.788 44.6743 108.26L45.5743 108.092C45.7183 108.644 46.0543 108.908 46.5703 108.908C47.0623 108.908 47.3983 108.644 47.5663 108.092L48.4543 108.26C48.3703 108.788 48.1663 109.196 47.8303 109.496C47.4943 109.796 47.0743 109.94 46.5703 109.94ZM42.9823 119V110.6H44.4343V116.732L48.6823 110.6H50.0623V119H48.6103V112.88L44.3743 119H42.9823Z" fill="black"/>
</svg>
